HIERARCHY
ROOT hip
{
  OFFSET 0 0 0
  CHANNELS 6 Xposition Yposition Zposition Zrotation Yrotation Xrotation
  JOINT abdomen
  {
    OFFSET 0 20.6881 -0.73152
    CHANNELS 3 Zrotation Xrotation Yrotation
    JOINT chest
    {
      OFFSET 0 11.7043 -0.48768
      CHANNELS 3 Zrotation Xrotation Yrotation
      JOINT neck
      {
        OFFSET 0 22.1894 -2.19456
        CHANNELS 3 Zrotation Xrotation Yrotation
        JOINT head
        {
          OFFSET -0.24384 7.07133 1.2192
          CHANNELS 3 Zrotation Xrotation Yrotation
          JOINT leftEye
          {
            OFFSET 4.14528 8.04674 8.04672
            CHANNELS 3 Zrotation Xrotation Yrotation
            End Site
            {
              OFFSET 1 0 0
            }
          }
          JOINT rightEye
          {
            OFFSET -3.6576 8.04674 8.04672
            CHANNELS 3 Zrotation Xrotation Yrotation
            End Site
            {
              OFFSET 1 0 0
            }
          }
        }
      }
      JOINT rCollar
      {
        OFFSET -2.68224 19.2634 -4.8768
        CHANNELS 3 Zrotation Xrotation Yrotation
        JOINT rShldr
        {
          OFFSET -8.77824 -1.95073 1.46304
          CHANNELS 3 Zrotation Xrotation Yrotation
          JOINT rForeArm
          {
            OFFSET -28.1742 -1.7115 0.48768
            CHANNELS 3 Zrotation Xrotation Yrotation
            JOINT rHand
            {
              OFFSET -22.5879 0.773209 7.07136
              CHANNELS 3 Zrotation Xrotation Yrotation
              JOINT rThumb1
              {
                OFFSET -1.2192 -0.487915 3.41376
                CHANNELS 3 Zrotation Xrotation Yrotation
                JOINT rThumb2
                {
                  OFFSET -3.37035 -0.52449 3.41376
                  CHANNELS 3 Zrotation Xrotation Yrotation
                  End Site
                  {
                    OFFSET -1.78271 -1.18214 1.43049
                  }
                }
              }
              JOINT rIndex1
              {
                OFFSET -7.75947 0.938293 5.60832
                CHANNELS 3 Zrotation Xrotation Yrotation
                JOINT rIndex2
                {
                  OFFSET -2.54057 -0.884171 1.56538
                  CHANNELS 3 Zrotation Xrotation Yrotation
                  End Site
                  {
                    OFFSET -1.62519 -0.234802 1.16502
                  }
                }
              }
              JOINT rMid1
              {
                OFFSET -8.24714 1.18213 3.41376
                CHANNELS 3 Zrotation Xrotation Yrotation
                JOINT rMid2
                {
                  OFFSET -3.10165 -0.590103 1.0647
                  CHANNELS 3 Zrotation Xrotation Yrotation
                  End Site
                  {
                    OFFSET -2.48547 -0.328903 0.83742
                  }
                }
              }
              JOINT rRing1
              {
                OFFSET -8.82822 0.546677 1.51678
                CHANNELS 3 Zrotation Xrotation Yrotation
                JOINT rRing2
                {
                  OFFSET -2.60934 -0.819778 -0.0198488
                  CHANNELS 3 Zrotation Xrotation Yrotation
                  End Site
                  {
                    OFFSET -2.33842 -0.294052 0.168128
                  }
                }
              }
              JOINT rPinky1
              {
                OFFSET -8.27202 -0.0477905 -0.4584
                CHANNELS 3 Zrotation Xrotation Yrotation
                JOINT rPinky2
                {
                  OFFSET -1.82734 -0.647385 -0.700984
                  CHANNELS 3 Zrotation Xrotation Yrotation
                  End Site
                  {
                    OFFSET -1.69225 -0.51767 -0.607171
                  }
                }
              }
            }
          }
        }
      }
      JOINT lCollar
      {
        OFFSET 2.68224 19.2634 -4.8768
        CHANNELS 3 Zrotation Xrotation Yrotation
        JOINT lShldr
        {
          OFFSET 8.77824 -1.95073 1.46304
          CHANNELS 3 Zrotation Xrotation Yrotation
          JOINT lForeArm
          {
            OFFSET 28.1742 -1.7115 0.48768
            CHANNELS 3 Zrotation Xrotation Yrotation
            JOINT lHand
            {
              OFFSET 22.5879 0.773209 7.07136
              CHANNELS 3 Zrotation Xrotation Yrotation
              JOINT lThumb1
              {
                OFFSET 1.2192 -0.487915 3.41376
                CHANNELS 3 Zrotation Xrotation Yrotation
                JOINT lThumb2
                {
                  OFFSET 3.37035 -0.52449 3.41376
                  CHANNELS 3 Zrotation Xrotation Yrotation
                  End Site
                  {
                    OFFSET 1.78271 -1.18214 1.43049
                  }
                }
              }
              JOINT lIndex1
              {
                OFFSET 7.75947 0.938293 5.60832
                CHANNELS 3 Zrotation Xrotation Yrotation
                JOINT lIndex2
                {
                  OFFSET 2.54057 -0.884171 1.56538
                  CHANNELS 3 Zrotation Xrotation Yrotation
                  End Site
                  {
                    OFFSET 1.62519 -0.234802 1.16502
                  }
                }
              }
              JOINT lMid1
              {
                OFFSET 8.24714 1.18213 3.41376
                CHANNELS 3 Zrotation Xrotation Yrotation
                JOINT lMid2
                {
                  OFFSET 3.10165 -0.590103 1.0647
                  CHANNELS 3 Zrotation Xrotation Yrotation
                  End Site
                  {
                    OFFSET 2.48547 -0.328903 0.83742
                  }
                }
              }
              JOINT lRing1
              {
                OFFSET 8.82822 0.546677 1.51678
                CHANNELS 3 Zrotation Xrotation Yrotation
                JOINT lRing2
                {
                  OFFSET 2.60934 -0.819778 -0.0198488
                  CHANNELS 3 Zrotation Xrotation Yrotation
                  End Site
                  {
                    OFFSET 2.33842 -0.294052 0.168128
                  }
                }
              }
              JOINT lPinky1
              {
                OFFSET 8.27202 -0.0477905 -0.4584
                CHANNELS 3 Zrotation Xrotation Yrotation
                JOINT lPinky2
                {
                  OFFSET 1.82734 -0.647385 -0.700984
                  CHANNELS 3 Zrotation Xrotation Yrotation
                  End Site
                  {
                    OFFSET 1.69225 -0.51767 -0.607171
                  }
                }
              }
            }
          }
        }
      }
    }
  }
  JOINT rButtock
  {
    OFFSET -8.77824 4.35084 1.2192
    CHANNELS 3 Zrotation Xrotation Yrotation
    JOINT rThigh
    {
      OFFSET 0 -1.70687 -2.19456
      CHANNELS 3 Zrotation Xrotation Yrotation
      JOINT rShin
      {
        OFFSET 0 -36.8199 0.73152
        CHANNELS 3 Zrotation Xrotation Yrotation
        JOINT rFoot
        {
          OFFSET 0.73152 -45.1104 -5.12064
          CHANNELS 3 Zrotation Xrotation Yrotation
          End Site
          {
            OFFSET -1.1221 -3.69964 12.103
          }
        }
      }
    }
  }
  JOINT lButtock
  {
    OFFSET 8.77824 4.35084 1.2192
    CHANNELS 3 Zrotation Xrotation Yrotation
    JOINT lThigh
    {
      OFFSET 0 -1.70687 -2.19456
      CHANNELS 3 Zrotation Xrotation Yrotation
      JOINT lShin
      {
        OFFSET 0 -36.8199 0.73152
        CHANNELS 3 Zrotation Xrotation Yrotation
        JOINT lFoot
        {
          OFFSET -0.73152 -45.1104 -5.12064
          CHANNELS 3 Zrotation Xrotation Yrotation
          End Site
          {
            OFFSET 1.1221 -3.69964 12.103
          }
        }
      }
    }
  }
}
MOTION
Frames:	4
Frame Time:	0.03333
0.14570987038314342 54.456825256347656 15.729516372084618 14.917348176240921 -12.957408428192139 3.264392539858818 2.651563100516796 12.197130918502808 -0.33896684646606445 13.45798909664154 -14.082601815462112 -1.8355206213891506 -3.8043852522969246 19.983377158641815 -1.936008408665657 21.27237170934677 -25.12021243572235 1.236109435558319 2.927061840891838 1.4756774716079235 -2.4404072016477585 1.0549406334757805 10.037740096449852 2.655443251132965 -3.782278150320053 -5.908756256103516 -3.4098802506923676 57.7992707490921 31.80769443511963 4.084043428301811 -29.66885805130005 -26.714219748973846 68.84429097175598 -9.025467038154602 -23.262466192245483 -12.530372589826584 0.09063519537448883 1.9272617250680923 -1.2799072265625 -4.58592027425766 -10.679278895258904 7.117660045623779 3.0350184068083763 -0.541792893782258 4.2632438242435455 3.5557857155799866 4.6593960374593735 2.8774020820856094 4.199568182229996 -0.9049541037529707 -1.1299891769886017 -0.21742187440395355 -4.8499079793691635 2.2701315209269524 2.2779498249292374 2.128446511924267 -1.8617615103721619 7.146292626857758 -2.086747884750366 2.523251920938492 -3.859083205461502 4.615283757448196 4.763049334287643 6.3487981259822845 -3.562188483774662 3.4167178720235825 1.212200978770852 0.8418441563844681 4.034968055784702 -63.5724413394928 27.121934294700623 -30.06259024143219 26.5119731426239 -20.507555902004242 -55.75955808162689 4.658563546836376 -4.029754176735878 8.452808037400246 -4.185806103050709 6.009738743305206 0.6219365447759628 3.1796957552433014 3.9407628402113914 3.0744676664471626 1.4664582163095474 5.526779517531395 -3.7093928083777428 -8.160818740725517 8.806826770305634 -2.086386624723673 2.628828026354313 -3.2564837113022804 2.407595068216324 0.5484222248196602 4.487716555595398 0.13880129903554916 -0.3156358189880848 1.8452541902661324 -4.500579759478569 -10.689716711640358 4.508743733167648 0.5965160764753819 1.457042321562767 -0.496189221739769 -6.488330662250519 -4.251935295760632 -3.78045491874218 0.38052700459957123 -0.20903175696730614 3.239602893590927 -5.118788704276085 -39.24342155456543 -39.3138912320137 -37.64533460140228 -17.313610911369324 65.29820144176483 15.599008798599243 -5.423736423254013 -15.318661630153656 -5.966015383601189 -2.30227779597044 -6.517334058880806 -9.169258922338486 49.410849809646606 -36.090726256370544 40.583345890045166 10.792545229196548 65.03721714019775 -17.4603733420372 6.423776596784592 -12.875766009092331 9.28613618016243
0.1481040744110942 54.50525665283203 16.036373779177666 15.85245743393898 -12.8769850730896 4.281217977404594 2.6170779392123222 12.366732358932495 -0.34087926149368286 13.511268496513367 -14.246864318847656 -1.963652428239584 -3.9245321229100227 20.04445642232895 -2.181226685643196 21.446253955364227 -25.365800857543945 1.1008617281913757 3.0560653656721115 1.3939720205962658 -2.3557888716459274 1.1621324345469475 9.896071180701256 2.6165619492530823 -3.6874285340309143 -6.000560224056244 -3.432518094778061 57.62886464595795 31.652694940567017 4.153917655348778 -29.544054865837097 -26.51312381029129 68.74323606491089 -9.016731083393097 -23.184832334518433 -12.438002675771713 0.1424018293619156 1.8538349121809006 -1.2628912925720215 -4.60471585392952 -10.67884974181652 7.088552713394165 3.0856692418456078 -0.5172024015337229 4.277491718530655 3.625308573246002 4.7775741666555405 2.877659574151039 4.25414577126503 -1.0233575385063887 -1.052001267671585 -0.1075076311826706 -4.86946128308773 2.136536054313183 2.246047630906105 2.1731777116656303 -1.747826635837555 6.9572558999061584 -2.045903205871582 2.6534248888492584 -3.836713582277298 4.543180614709854 4.825491160154343 6.498371511697769 -3.5617807880043983 3.3926745504140854 1.1918081436306238 0.7763124257326126 4.174249805510044 -63.60063672065735 27.351660132408142 -30.08105456829071 26.459755897521973 -20.535383820533752 -55.85046350955963 4.602467827498913 -4.092775359749794 8.614030256867409 -4.250179119408131 6.135362684726715 0.6649833172559738 3.0797673761844635 3.9723076298832893 3.028065450489521 1.5429574996232986 5.514183863997459 -3.7486978992819786 -8.228008076548576 8.73873084783554 -2.1335881389677525 2.735917903482914 -3.3274536207318306 2.524346262216568 0.6713103130459785 4.51313316822052 -0.05385641008615494 -0.08248211815953255 1.9897394254803658 -4.498112127184868 -10.753993168473244 4.3538059294223785 0.6774249114096165 1.4175266772508621 -0.5714305490255356 -6.709261536598206 -4.270217232406139 -3.867615982890129 0.35536788403987885 -0.12051349505782127 3.363048881292343 -5.029438957571983 -39.044771790504456 -39.50398474931717 -37.644551396369934 -17.287303805351257 65.48175573348999 15.461522787809372 -5.465954393148422 -15.294033586978912 -6.079285070300102 -2.3938001319766045 -6.562073305249214 -8.986493200063705 49.0264892578125 -35.9874826669693 40.314170122146606 10.478654354810715 65.01638174057007 -17.17158928513527 6.698080748319626 -12.820630520582199 9.512042552232742
0.15303568542003632 54.0607795715332 16.38114632666111 17.44870439171791 -11.748547554016113 4.401080533862114 2.495935969054699 12.540721893310547 -0.49872323870658875 13.003955483436584 -14.160309433937073 -2.002702709287405 -3.923998363316059 20.267782509326935 -1.9517368823289871 21.03592425584793 -25.08382558822632 1.5065887570381165 3.327311798930168 1.319571565836668 -2.376871034502983 1.0910431668162346 9.65377114713192 2.6689615845680237 -3.7765878438949585 -5.9805697202682495 -3.340432494878769 58.29544186592102 31.437731981277466 3.8089480251073837 -29.209476113319397 -26.778850257396698 70.10444641113281 -9.16059672832489 -23.413447737693787 -12.661838382482529 0.3070143610239029 2.0555048435926437 -0.8774444460868835 -4.700545817613602 -10.450355038046837 7.131151556968689 3.226163350045681 -0.4882452730089426 4.277191311120987 3.7196364998817444 4.620799049735069 2.724532261490822 4.301985651254654 -1.1615315359085798 -0.9075535833835602 -0.42073599994182587 -4.500872120261192 2.047164849936962 2.68013633787632 1.9209454581141472 -1.9050469994544983 6.806805431842804 -2.1142351627349854 2.6723746955394745 -4.343055635690689 4.528323858976364 5.168180912733078 6.544712036848068 -3.1815508380532265 3.643321618437767 0.904610613361001 0.9270472079515457 4.320848621428013 -63.815454840660095 26.759846806526184 -30.516430735588074 26.43060028553009 -20.319278240203857 -55.612406730651855 4.717100076377392 -3.274798169732094 8.42471994459629 -4.132719822227955 6.034887135028839 0.6258847564458847 3.169020563364029 3.736732564866543 2.8482287004590034 1.492309346795082 5.981354936957359 -3.882942460477352 -8.155046626925468 8.624836206436157 -1.9661163724958897 2.6412251964211464 -3.370705582201481 2.5017352402210236 0.5405311658978462 4.277699589729309 -0.37556055933237076 -0.25248052552342415 2.0606597140431404 -4.405500814318657 -10.571592226624489 3.9968106150627136 0.7997416891157627 1.712585762143135 -0.42678438127040863 -6.763605773448944 -4.155762009322643 -4.492785260081291 0.49916110932826996 -0.22239452227950096 3.4080885350704193 -4.751245602965355 -39.886502623558044 -38.640667498111725 -37.422072887420654 -18.499168753623962 64.61623907089233 17.076203227043152 -5.459345430135727 -15.483322441577911 -5.829507037997246 -2.61064600199461 -6.6245365887880325 -8.695580810308456 50.84753751754761 -35.97226917743683 41.23770833015442 11.846682876348495 64.70845878124237 -18.386998772621155 6.225529164075851 -11.969565600156784 8.408506661653519
0.1581347780302167 54.10505294799805 16.79627875983715 17.85921648144722 -11.715717315673828 3.9866792410612106 2.264547161757946 12.729002237319946 -0.3498914837837219 13.296509385108948 -14.405421763658524 -2.2959539853036404 -3.918827064335346 20.006347596645355 -2.1762270480394363 21.371468603610992 -25.132818818092346 1.412266194820404 3.2078032940626144 1.3190538994967937 -2.151200696825981 1.2482742592692375 9.394406899809837 2.5492599606513977 -3.6619381606578827 -6.02419450879097 -3.598106950521469 58.197927474975586 31.226942539215088 3.6276360601186752 -29.129160046577454 -26.618196666240692 69.81072306632996 -9.11620482802391 -23.709627985954285 -12.093837708234787 0.2295628935098648 1.9942431896924973 -1.2275370955467224 -4.796465635299683 -10.374309048056602 7.083027362823486 3.215627633035183 -0.07202544249594212 4.310257583856583 3.7843528389930725 5.0727566331624985 2.800411954522133 4.537558704614639 -1.3268924038857222 -0.7079221308231354 -0.4485558718442917 -4.5345499366521835 1.752135269343853 2.578233852982521 2.2298715636134148 -1.5751245617866516 6.4113351702690125 -1.8615710735321045 3.0331210792064667 -4.1037167608737946 4.641043692827225 5.12517973780632 6.826268881559372 -3.379090167582035 3.396499380469322 0.9612669143825769 1.0102976113557816 4.52816192060709 -63.733819127082825 27.174033522605896 -30.788374543190002 26.16721272468567 -20.241939425468445 -55.49019455909729 4.349530152976513 -3.1709054857492447 8.268373981118202 -4.275713749229908 6.342128813266754 0.5821459740400314 2.727314382791519 4.078063778579235 2.7820907905697823 1.5153951197862625 5.816222056746483 -3.8666346296668053 -8.278229758143425 8.558762669563293 -1.9595235027372837 2.9556015506386757 -3.464573509991169 2.764398604631424 0.8959935978055 4.37105119228363 -0.40537867695093155 0.15252767130732536 2.1078773215413094 -4.39093105494976 -10.880335941910744 3.83285790681839 1.032667402178049 1.6941723972558975 -0.5226143449544907 -7.10079699754715 -4.199519567191601 -4.454520866274834 0.13470791280269623 0.02104276791214943 3.76137837767601 -4.804101213812828 -39.347137212753296 -38.82556289434433 -37.131643295288086 -18.569721579551697 64.66856360435486 16.71574115753174 -5.5302415788173676 -15.462782084941864 -5.808011814951897 -2.6355476304888725 -6.714787557721138 -8.7623892724514 49.90346431732178 -35.71602165699005 40.703460574150085 11.737429797649384 64.6766209602356 -18.041581213474274 6.529214233160019 -12.025425285100937 9.054629355669022
